PathFileType	4	(X/Y/Z)	/Users/niels/Desktop/University/Third Semester/Perception and Action/Exam/Gymnastics Motion Tracking/Code for Gym Tracking/Analyzed Data/Webcam_Backflip/id18_1_trajectory_Sports2D/id18_1_trajectory_Sports2D_px_person00.trc
DataRate	CameraRate	NumFrames	NumMarkers	Units	OrigDataRate	OrigDataStartFrame	OrigNumFrames
29.872340425531917	29.872340425531917	8	22	m	29.872340425531917	0	235
Frame#	Time	Hip			RHip			RKnee			RAnkle			RBigToe			RSmallToe			RHeel			LHip			LKnee			LAnkle			LBigToe			LSmallToe			LHeel			Neck			Head			Nose			RShoulder			RElbow			RWrist			LShoulder			LElbow			LWrist		
		X1	Y1	Z1	X2	Y2	Z2	X3	Y3	Z3	X4	Y4	Z4	X5	Y5	Z5	X6	Y6	Z6	X7	Y7	Z7	X8	Y8	Z8	X9	Y9	Z9	X10	Y10	Z10	X11	Y11	Z11	X12	Y12	Z12	X13	Y13	Z13	X14	Y14	Z14	X15	Y15	Z15	X16	Y16	Z16	X17	Y17	Z17	X18	Y18	Z18	X19	Y19	Z19	X20	Y20	Z20	X21	Y21	Z21	X22	Y22	Z22
0	0.0	0.9895832938061797	-0.6788911651379707	0.0	0.9882719684705827	-0.6749520969593161	0.0	0.9961503833504594	-0.7734330506204479	0.0	0.9817157458494655	-0.8745072132798587	0.0	1.004053824327726	-0.8915877030026128	0.0	0.9974844188693541	-0.895522333349824	0.0	0.9712073348911298	-0.8863274314936159	0.0	0.9935193413956427	-0.6736389375409999	0.0	0.9961564216560785	-0.7734285994518325	0.0	0.9830341749930351	-0.8692587157308131	0.0	1.0106077345872824	-0.8889473069887898	0.0	1.009295968454876	-0.8863147751107375	0.0	0.9712189944386375	-0.8823833118226424	0.0	1.021120991289487	-0.5436837296248472	0.0	1.0421581959783683	-0.4767400908332517	0.0	1.0526438815719676	-0.5161261657334353	0.0	1.0158791747803368	-0.5528555553358665	0.0	1.0775555334082014	-0.5751389604823681	0.0	1.1379216469782065	-0.5868955953437477	0.0	1.0158585217876333	-0.5515514437439156	0.0	1.0736259316829804	-0.5738324473152683	0.0	1.136655471206767	-0.5842934376660139	0.0
1	0.03347578347578348	0.989547651428735	-0.6834880766676064	0.0	0.9890410475921269	-0.6803553824504932	0.0	0.9960541381616221	-0.7787201056866987	0.0	0.9809880566956881	-0.8783869212114194	0.0	1.0033797985762873	-0.8946296502006978	0.0	0.9959356072369833	-0.8989276018070734	0.0	0.9711285499794035	-0.8900964981786976	0.0	0.9931722929676561	-0.6788793615956682	0.0	0.9959709921781901	-0.7782904847725197	0.0	0.9822868349036982	-0.8738673595246848	0.0	1.0103494336903684	-0.8925118237593329	0.0	1.007651999768815	-0.8899291682142313	0.0	0.9712079188961514	-0.8867162586083703	0.0	1.0193223549709782	-0.5485450595257537	0.0	1.040122467602496	-0.4819112832209518	0.0	1.0509443658416961	-0.5208426399380737	0.0	1.0152763520832657	-0.5592450124937328	0.0	1.0716301424120735	-0.5919878925529	0.0	1.1289154674181388	-0.6136337630865932	0.0	1.0125481026503087	-0.5576960716102842	0.0	1.0661251329482226	-0.5908362396467264	0.0	1.1261571522849927	-0.6102303679094259	0.0
2	0.06695156695156695	0.9897217178516317	-0.6880824437657009	0.0	0.99001957721002	-0.6857545969692675	0.0	0.995974802928271	-0.7838340814532365	0.0	0.980369493295691	-0.8823892754582728	0.0	1.003381395932093	-0.8977329668646739	0.0	0.9950748061080222	-0.9022961900678382	0.0	0.9710471778065278	-0.894034301890347	0.0	0.9927898581503293	-0.684097348276818	0.0	0.9958169070598409	-0.7830412214732072	0.0	0.9816235410933434	-0.87847174330285	0.0	1.0102660567058848	-0.8960397485371197	0.0	1.0061736423082308	-0.8936198464480185	0.0	0.9711948854175662	-0.8910681103244726	0.0	1.0176932919773067	-0.5530587628594621	0.0	1.038113467952146	-0.4868612939352884	0.0	1.04934643913552	-0.5251714871996336	0.0	1.0146812297590786	-0.5654222919232359	0.0	1.0650712298176028	-0.6080665893869919	0.0	1.1187382057209945	-0.639475850990518	0.0	1.0094083649964198	-0.563537029636388	0.0	1.0577238483737939	-0.6067373135238304	0.0	1.1142807936016783	-0.6351819700333345	0.0
3	0.10042735042735043	0.9902495344479036	-0.6925604730819704	0.0	0.9913329875455014	-0.6909804568932978	0.0	0.9958761709875024	-0.7885263242213498	0.0	0.9799188983812037	-0.8864613296042394	0.0	1.0044078520921287	-0.9008743845454129	0.0	0.9954104419769192	-0.9055179768273551	0.0	0.9709756289003058	-0.8981217270863184	0.0	0.9923770765434936	-0.6891389086531378	0.0	0.9956949476971159	-0.787481145215766	0.0	0.9810768941793042	-0.8829358947137613	0.0	1.0104119878966409	-0.8994202210738224	0.0	1.0049812672762914	-0.8972671367681929	0.0	0.9711070469333005	-0.8952798904390644	0.0	1.0163841776302578	-0.5569060559513315	0.0	1.0362859880135218	-0.49137727944543064	0.0	1.0479967387111164	-0.5288167166231893	0.0	1.0140354339082294	-0.5710855562194675	0.0	1.0573290495587118	-0.6225160320480261	0.0	1.106385404855022	-0.6632871413916659	0.0	1.0066604101252385	-0.5687839710906173	0.0	1.0478906371747778	-0.6206133403926465	0.0	1.0999902497252283	-0.658068652171112	0.0
4	0.1339031339031339	0.9911645545276943	-0.6967680238697621	0.0	0.992958412476878	-0.6957974390000412	0.0	0.9956885189966085	-0.7924985226524652	0.0	0.9796511754015729	-0.8903395476173469	0.0	1.0061989807299259	-0.9039229261483842	0.0	0.9969790775145393	-0.9084212872350553	0.0	0.9709959071311116	-0.9021077252659545	0.0	0.9920298253205079	-0.6938360824431578	0.0	0.9955680605324227	-0.7913638000313357	0.0	0.9806455197922547	-0.8869982461368788	0.0	1.0106032940380005	-0.902507448584436	0.0	1.0040815389373494	-0.9006084179852559	0.0	0.9708789157354211	-0.8990542221321297	0.0	1.0154926916376268	-0.5598572982147483	0.0	1.0348647483955138	-0.4952644236002476	0.0	1.0470212560413346	-0.5316353385700948	0.0	1.0132511880220898	-0.5758498469681723	0.0	1.0481143724723914	-0.6344577284972581	0.0	1.0912335807185243	-0.6837847358270054	0.0	1.0045705517781978	-0.5731914549175835	0.0	1.0367829011476568	-0.6317936029684781	0.0	1.083000189052664	-0.6777886880170523	0.0
5	0.16737891737891739	0.9923909534040204	-0.7005580212167876	0.0	0.9946623403365513	-0.7000138107503311	0.0	0.9953606229816143	-0.7954735349211998	0.0	0.9795833759211537	-0.8936157336355066	0.0	1.0079288331740617	-0.9066257861363302	0.0	0.999089187324939	-0.9107797846088698	0.0	0.9712969714576737	-0.9055574153875745	0.0	0.9919789852313449	-0.6980919661995602	0.0	0.9953999330896358	-0.7944533786644506	0.0	0.9803554636611913	-0.8903474381636669	0.0	1.0104702847153797	-0.9051407630571372	0.0	1.0033700427908865	-0.9033815774773938	0.0	0.9705896171458641	-0.9020911105700816	0.0	1.0150794933688891	-0.5618007524186923	0.0	1.0340782111671625	-0.49831473793384423	0.0	1.0465099692060407	-0.5335801961309085	0.0	1.0122891044272135	-0.5793027270329715	0.0	1.037484720676192	-0.6430318970052669	0.0	1.0730751526299624	-0.6995187873793949	0.0	1.0034732474455463	-0.5765541557271323	0.0	1.0253012465535272	-0.639771563999962	0.0	1.0638538198383591	-0.6931043717304094	0.0
6	0.20085470085470086	0.9937968399105749	-0.7037439243044173	0.0	0.9960778098798843	-0.7034330866787614	0.0	0.9948980809196143	-0.7972481750913462	0.0	0.9797369318835422	-0.8958864921659953	0.0	1.008731810017379	-0.9086342672814464	0.0	1.000631073719401	-0.912323045800373	0.0	0.9720768052719847	-0.9079982399006299	0.0	0.9925292710139092	-0.7017661317485864	0.0	0.9952231551055972	-0.7965231725405353	0.0	0.9802737206964218	-0.8926983819394185	0.0	1.0097268631230174	-0.9071041126744986	0.0	1.0027228740731995	-0.9053653015956004	0.0	0.9704601332274035	-0.9041702035779368	0.0	1.0151882759356818	-0.5627423614407641	0.0	1.0341390124749879	-0.5003082410062079	0.0	1.046569157500254	-0.5346322025306398	0.0	1.0112018635793902	-0.5811068026923438	0.0	1.0258389273472501	-0.6474944954161173	0.0	1.0521692606591913	-0.7089665722182373	0.0	1.0036969125740176	-0.5787063591916003	0.0	1.01468716612963	-0.644159051632762	0.0	1.0435958262301785	-0.7026448822814774	0.0
7	0.23433048433048434	0.9952261985508989	-0.7059450317946117	0.0	0.9968912353985855	-0.7056408372321819	0.0	0.994374929047768	-0.7976349778720888	0.0	0.9801079075405857	-0.8968691953958816	0.0	1.008259719271692	-0.9095475184503501	0.0	1.0008572981276878	-0.912773236885398	0.0	0.9733322288646945	-0.9090519893022867	0.0	0.99391627782645	-0.7044100750528793	0.0	0.9951618850263005	-0.7972943226699958	0.0	0.9804572044684324	-0.8937929329966849	0.0	1.008459379678835	-0.9080888779899605	0.0	1.0021050582326512	-0.9063338489009269	0.0	0.9706766838225608	-0.9051028461999943	0.0	1.015830577938814	-0.5627563572196798	0.0	1.0352554901365696	-0.5010616618755914	0.0	1.0473208696291798	-0.534786948849975	0.0	1.0101345864513642	-0.5810955613106722	0.0	1.0138490501586193	-0.6473572132344496	0.0	1.029301919182077	-0.7108980823166766	0.0	1.0053812482018163	-0.5795250155524139	0.0	1.005813947230577	-0.6446828779327208	0.0	1.023133557988984	-0.7052012665850717	0.0
